<svg xmlns="http://www.w3.org/2000/svg" viewBox="0 0 50 50">
    <path style="fill:white;text-indent:0;text-align:start;line-height:normal;text-transform:none;block-progression:tb;-inkscape-font-specification:Sans" d="M 15.6875 4 C 14.112762 4 12.652421 4.8686315 11.875 6.25 L 2.59375 22.78125 C 1.8166284 24.162086 1.8166284 25.837914 2.59375 27.21875 L 11.875 43.75 C 12.652421 45.131368 14.112762 46 15.6875 46 L 34.3125 46 C 35.887238 46 37.347579 45.131368 38.125 43.75 L 47.40625 27.21875 C 48.183372 25.837914 48.183372 24.162086 47.40625 22.78125 L 38.125 6.25 C 37.347579 4.8686315 35.887238 4 34.3125 4 L 15.6875 4 z M 15.6875 6 L 34.3125 6 C 35.157762 6 35.942421 6.4501185 36.375 7.21875 L 45.6875 23.75 C 46.120378 24.519164 46.120378 25.480836 45.6875 26.25 L 36.375 42.78125 C 35.942421 43.549882 35.157762 44 34.3125 44 L 15.6875 44 C 14.842238 44 14.057579 43.549882 13.625 42.78125 L 4.3125 26.25 C 3.8796216 25.480836 3.8796216 24.519164 4.3125 23.75 L 13.625 7.21875 C 14.057579 6.4501185 14.842238 6 15.6875 6 z M 20 15 L 20 18 L 19 18 L 18 18 L 18 19 L 18 20 L 15 20 L 15 22 L 18 22 L 18 24 L 15 24 L 15 26 L 18 26 L 18 28 L 15 28 L 15 30 L 18 30 L 18 31 L 18 32 L 19 32 L 20 32 L 20 35 L 22 35 L 22 32 L 24 32 L 24 35 L 26 35 L 26 32 L 28 32 L 28 35 L 30 35 L 30 32 L 31 32 L 32 32 L 32 31 L 32 30 L 35 30 L 35 28 L 32 28 L 32 26 L 35 26 L 35 24 L 32 24 L 32 22 L 35 22 L 35 20 L 32 20 L 32 19 L 32 18 L 31 18 L 30 18 L 30 15 L 28 15 L 28 18 L 26 18 L 26 15 L 24 15 L 24 18 L 22 18 L 22 15 L 20 15 z M 20 20 L 30 20 L 30 30 L 20 30 L 20 20 z M 22 22 L 22 28 L 28 28 L 28 22 L 22 22 z"></path>
</svg>