<svg xmlns="http://www.w3.org/2000/svg" viewBox="0 0 50 50" enable-background="new 0 0 50 50">
    <path style="fill:white;text-indent:0;text-align:start;line-height:normal;text-transform:none;block-progression:tb;-inkscape-font-specification:Bitstream Vera Sans" d="M 41 1 C 38.689528 1 36.604295 1.3358894 35 1.9375 C 34.197853 2.2383053 33.50889 2.6148621 32.96875 3.09375 C 32.42861 3.5726379 32 4.225493 32 5 L 32 10 L 32 15 L 32 20 L 32 25 L 32 27.375 C 31.691998 27.209565 31.355591 27.070847 31 26.9375 C 29.395705 26.335889 27.310472 26 25 26 C 22.689528 26 20.604295 26.335889 19 26.9375 C 18.644409 27.070847 18.308002 27.209565 18 27.375 L 18 25 L 18 20 C 18 19.225493 17.57139 18.572638 17.03125 18.09375 C 16.49111 17.614862 15.802147 17.238305 15 16.9375 C 13.395705 16.335889 11.310472 16 9 16 C 6.6895285 16 4.604295 16.335889 3 16.9375 C 2.1978525 17.238305 1.50889 17.614862 0.96875 18.09375 C 0.42861003 18.572638 0 19.225493 0 20 L 0 25 L 0 30 L 0 35 L 0 40 L 0 45 C 0 45.777941 0.42531517 46.454679 0.96875 46.9375 C 1.5121848 47.420321 2.1960915 47.764499 3 48.0625 C 4.607817 48.658501 6.7015152 49 9 49 C 11.298485 49 13.392183 48.658501 15 48.0625 C 15.788059 47.770374 16.461857 47.436728 17 46.96875 C 17.538143 47.436728 18.211941 47.770374 19 48.0625 C 20.607817 48.658501 22.701515 49 25 49 C 27.298485 49 29.392183 48.658501 31 48.0625 C 31.788059 47.770374 32.461857 47.436728 33 46.96875 C 33.538143 47.436728 34.211941 47.770374 35 48.0625 C 36.607817 48.658501 38.701515 49 41 49 C 43.298485 49 45.392183 48.658501 47 48.0625 C 47.803909 47.764499 48.487815 47.420321 49.03125 46.9375 C 49.574685 46.454679 50 45.777941 50 45 L 50 40 L 50 35 L 50 30 L 50 25 L 50 20 L 50 15 L 50 10 L 50 5 C 50 4.225493 49.57139 3.5726379 49.03125 3.09375 C 48.49111 2.6148621 47.802147 2.2383053 47 1.9375 C 45.395705 1.3358894 43.310472 1 41 1 z M 41 3 C 43.107806 3 45.021364 3.3283242 46.3125 3.8125 C 46.958068 4.0545879 47.449246 4.3548078 47.71875 4.59375 C 47.988254 4.8326922 48 4.9460799 48 5 C 48 5.0539201 47.988254 5.1673078 47.71875 5.40625 C 47.449246 5.6451922 46.958068 5.9454121 46.3125 6.1875 C 45.021364 6.6716758 43.107806 7 41 7 C 38.892194 7 36.978636 6.6716758 35.6875 6.1875 C 35.041932 5.9454121 34.550754 5.6451922 34.28125 5.40625 C 34.011746 5.1673078 34 5.0539201 34 5 C 34 4.9460799 34.011746 4.8326922 34.28125 4.59375 C 34.550754 4.3548078 35.041932 4.0545879 35.6875 3.8125 C 36.978636 3.3283242 38.892194 3 41 3 z M 34 7.625 C 34.308002 7.7904346 34.644409 7.9291533 35 8.0625 C 36.604295 8.6641106 38.689528 9 41 9 C 43.310472 9 45.395705 8.6641106 47 8.0625 C 47.355591 7.9291533 47.691998 7.7904346 48 7.625 L 48 10 C 48 10.07206 47.98781 10.198446 47.71875 10.4375 C 47.449685 10.676554 46.958591 10.948001 46.3125 11.1875 C 45.020317 11.666499 43.101515 12 41 12 C 38.898485 12 36.979683 11.666499 35.6875 11.1875 C 35.041409 10.948001 34.550315 10.676554 34.28125 10.4375 C 34.012185 10.198446 34 10.072059 34 10 L 34 7.625 z M 34 12.625 C 34.307424 12.783308 34.643628 12.930396 35 13.0625 C 36.607817 13.658501 38.701515 14 41 14 C 43.298485 14 45.392183 13.658501 47 13.0625 C 47.356372 12.930396 47.692576 12.783308 48 12.625 L 48 15 C 48 15.07206 47.98781 15.198446 47.71875 15.4375 C 47.449685 15.676554 46.958591 15.948001 46.3125 16.1875 C 45.020317 16.666499 43.101515 17 41 17 C 38.898485 17 36.979683 16.666499 35.6875 16.1875 C 35.041409 15.948001 34.550315 15.676554 34.28125 15.4375 C 34.012185 15.198446 34 15.072059 34 15 L 34 12.625 z M 34 17.625 C 34.307424 17.783308 34.643628 17.930396 35 18.0625 C 36.607817 18.658501 38.701515 19 41 19 C 43.298485 19 45.392183 18.658501 47 18.0625 C 47.356372 17.930396 47.692576 17.783308 48 17.625 L 48 20 C 48 20.07206 47.98781 20.198446 47.71875 20.4375 C 47.449685 20.676554 46.958591 20.948001 46.3125 21.1875 C 45.020317 21.666499 43.101515 22 41 22 C 38.898485 22 36.979683 21.666499 35.6875 21.1875 C 35.041409 20.948001 34.550315 20.676554 34.28125 20.4375 C 34.012185 20.198446 34 20.072059 34 20 L 34 17.625 z M 9 18 C 11.107806 18 13.021364 18.328324 14.3125 18.8125 C 14.958068 19.054588 15.449246 19.354808 15.71875 19.59375 C 15.988254 19.832692 16 19.94608 16 20 C 16 20.05392 15.98825 20.167308 15.71875 20.40625 C 15.449246 20.645192 14.958068 20.945412 14.3125 21.1875 C 13.021364 21.671676 11.107806 22 9 22 C 6.8921935 22 4.9786355 21.671676 3.6875 21.1875 C 3.0419322 20.945412 2.5507541 20.645192 2.28125 20.40625 C 2.0117459 20.167308 2 20.05392 2 20 C 2 19.94608 2.0117459 19.832692 2.28125 19.59375 C 2.5507541 19.354808 3.0419322 19.054588 3.6875 18.8125 C 4.9786355 18.328324 6.8921935 18 9 18 z M 2 22.625 C 2.3080018 22.790435 2.6444088 22.929153 3 23.0625 C 4.604295 23.664111 6.6895285 24 9 24 C 11.310472 24 13.395705 23.664111 15 23.0625 C 15.355591 22.929153 15.691998 22.790435 16 22.625 L 16 25 C 16 25.07206 15.98781 25.198446 15.71875 25.4375 C 15.449685 25.676554 14.958591 25.948001 14.3125 26.1875 C 13.020317 26.666499 11.101515 27 9 27 C 6.8984848 27 4.979683 26.666499 3.6875 26.1875 C 3.0414085 25.948001 2.5503152 25.676554 2.28125 25.4375 C 2.0121848 25.198446 2 25.072059 2 25 L 2 22.625 z M 34 22.625 C 34.307424 22.783308 34.643628 22.930396 35 23.0625 C 36.607817 23.658501 38.701515 24 41 24 C 43.298485 24 45.392183 23.658501 47 23.0625 C 47.356372 22.930396 47.692576 22.783308 48 22.625 L 48 25 C 48 25.07206 47.98781 25.198446 47.71875 25.4375 C 47.449685 25.676554 46.958591 25.948001 46.3125 26.1875 C 45.020317 26.666499 43.101515 27 41 27 C 38.898485 27 36.979683 26.666499 35.6875 26.1875 C 35.041409 25.948001 34.550315 25.676554 34.28125 25.4375 C 34.012185 25.198446 34 25.072059 34 25 L 34 22.625 z M 2 27.625 C 2.3074245 27.783308 2.6436282 27.930396 3 28.0625 C 4.607817 28.658501 6.7015152 29 9 29 C 11.298485 29 13.392183 28.658501 15 28.0625 C 15.356372 27.930396 15.692576 27.783308 16 27.625 L 16 30 C 16 30.07206 15.98781 30.198446 15.71875 30.4375 C 15.449685 30.676554 14.958591 30.948001 14.3125 31.1875 C 13.020317 31.666499 11.101515 32 9 32 C 6.8984848 32 4.979683 31.666499 3.6875 31.1875 C 3.0414085 30.948001 2.5503152 30.676554 2.28125 30.4375 C 2.0121848 30.198446 2 30.072059 2 30 L 2 27.625 z M 34 27.625 C 34.307424 27.783308 34.643628 27.930396 35 28.0625 C 36.607817 28.658501 38.701515 29 41 29 C 43.298485 29 45.392183 28.658501 47 28.0625 C 47.356372 27.930396 47.692576 27.783308 48 27.625 L 48 30 C 48 30.07206 47.98781 30.198446 47.71875 30.4375 C 47.449685 30.676554 46.958591 30.948001 46.3125 31.1875 C 45.020317 31.666499 43.101515 32 41 32 C 38.898485 32 36.979683 31.666499 35.6875 31.1875 C 35.041409 30.948001 34.550315 30.676554 34.28125 30.4375 C 34.012185 30.198446 34 30.072059 34 30 L 34 27.625 z M 25 28 C 27.107806 28 29.021364 28.328324 30.3125 28.8125 C 30.958068 29.054588 31.449246 29.354808 31.71875 29.59375 C 31.988254 29.832692 32 29.94608 32 30 C 32 30.05392 31.98825 30.167308 31.71875 30.40625 C 31.449246 30.645192 30.958068 30.945412 30.3125 31.1875 C 29.021364 31.671676 27.107806 32 25 32 C 22.892194 32 20.978636 31.671676 19.6875 31.1875 C 19.041932 30.945412 18.550754 30.645192 18.28125 30.40625 C 18.011746 30.167308 18 30.05392 18 30 C 18 29.94608 18.01175 29.832692 18.28125 29.59375 C 18.550754 29.354808 19.041932 29.054588 19.6875 28.8125 C 20.978636 28.328324 22.892194 28 25 28 z M 2 32.625 C 2.3074245 32.783308 2.6436282 32.930396 3 33.0625 C 4.607817 33.658501 6.7015152 34 9 34 C 11.298485 34 13.392183 33.658501 15 33.0625 C 15.356372 32.930396 15.692576 32.783308 16 32.625 L 16 35 C 16 35.07206 15.98781 35.198446 15.71875 35.4375 C 15.449685 35.676554 14.958591 35.948001 14.3125 36.1875 C 13.020317 36.666499 11.101515 37 9 37 C 6.8984848 37 4.979683 36.666499 3.6875 36.1875 C 3.0414085 35.948001 2.5503152 35.676554 2.28125 35.4375 C 2.0121848 35.198446 2 35.072059 2 35 L 2 32.625 z M 18 32.625 C 18.308002 32.790435 18.644409 32.929153 19 33.0625 C 20.604295 33.664111 22.689528 34 25 34 C 27.310472 34 29.395705 33.664111 31 33.0625 C 31.355591 32.929153 31.691998 32.790435 32 32.625 L 32 35 C 32 35.07206 31.98782 35.198446 31.71875 35.4375 C 31.449685 35.676554 30.958591 35.948001 30.3125 36.1875 C 29.020317 36.666499 27.101515 37 25 37 C 22.898485 37 20.979683 36.666499 19.6875 36.1875 C 19.041409 35.948001 18.550315 35.676554 18.28125 35.4375 C 18.012185 35.198446 18 35.072059 18 35 L 18 32.625 z M 34 32.625 C 34.307424 32.783308 34.643628 32.930396 35 33.0625 C 36.607817 33.658501 38.701515 34 41 34 C 43.298485 34 45.392183 33.658501 47 33.0625 C 47.356372 32.930396 47.692576 32.783308 48 32.625 L 48 35 C 48 35.07206 47.98781 35.198446 47.71875 35.4375 C 47.449685 35.676554 46.958591 35.948001 46.3125 36.1875 C 45.020317 36.666499 43.101515 37 41 37 C 38.898485 37 36.979683 36.666499 35.6875 36.1875 C 35.041409 35.948001 34.550315 35.676554 34.28125 35.4375 C 34.012185 35.198446 34 35.072059 34 35 L 34 32.625 z M 2 37.625 C 2.3074245 37.783308 2.6436282 37.930396 3 38.0625 C 4.607817 38.658501 6.7015152 39 9 39 C 11.298485 39 13.392183 38.658501 15 38.0625 C 15.356372 37.930396 15.692576 37.783308 16 37.625 L 16 40 C 16 40.07206 15.98781 40.198446 15.71875 40.4375 C 15.449685 40.676554 14.958591 40.948001 14.3125 41.1875 C 13.020317 41.666499 11.101515 42 9 42 C 6.8984848 42 4.979683 41.666499 3.6875 41.1875 C 3.0414085 40.948001 2.5503152 40.676554 2.28125 40.4375 C 2.0121848 40.198446 2 40.072059 2 40 L 2 37.625 z M 18 37.625 C 18.307424 37.783308 18.643628 37.930396 19 38.0625 C 20.607817 38.658501 22.701515 39 25 39 C 27.298485 39 29.392183 38.658501 31 38.0625 C 31.356372 37.930396 31.692576 37.783308 32 37.625 L 32 40 C 32 40.07206 31.98782 40.198446 31.71875 40.4375 C 31.449685 40.676554 30.958591 40.948001 30.3125 41.1875 C 29.020317 41.666499 27.101515 42 25 42 C 22.898485 42 20.979683 41.666499 19.6875 41.1875 C 19.041409 40.948001 18.550315 40.676554 18.28125 40.4375 C 18.012185 40.198446 18 40.072059 18 40 L 18 37.625 z M 34 37.625 C 34.307424 37.783308 34.643628 37.930396 35 38.0625 C 36.607817 38.658501 38.701515 39 41 39 C 43.298485 39 45.392183 38.658501 47 38.0625 C 47.356372 37.930396 47.692576 37.783308 48 37.625 L 48 40 C 48 40.07206 47.98781 40.198446 47.71875 40.4375 C 47.449685 40.676554 46.958591 40.948001 46.3125 41.1875 C 45.020317 41.666499 43.101515 42 41 42 C 38.898485 42 36.979683 41.666499 35.6875 41.1875 C 35.041409 40.948001 34.550315 40.676554 34.28125 40.4375 C 34.012185 40.198446 34 40.072059 34 40 L 34 37.625 z M 2 42.625 C 2.3074245 42.783308 2.6436282 42.930396 3 43.0625 C 4.607817 43.658501 6.7015152 44 9 44 C 11.298485 44 13.392183 43.658501 15 43.0625 C 15.356372 42.930396 15.692576 42.783308 16 42.625 L 16 45 C 16 45.07206 15.98781 45.198446 15.71875 45.4375 C 15.449685 45.676554 14.958591 45.948001 14.3125 46.1875 C 13.020317 46.666499 11.101515 47 9 47 C 6.8984848 47 4.979683 46.666499 3.6875 46.1875 C 3.0414085 45.948001 2.5503152 45.676554 2.28125 45.4375 C 2.0121848 45.198446 2 45.072059 2 45 L 2 42.625 z M 18 42.625 C 18.307424 42.783308 18.643628 42.930396 19 43.0625 C 20.607817 43.658501 22.701515 44 25 44 C 27.298485 44 29.392183 43.658501 31 43.0625 C 31.356372 42.930396 31.692576 42.783308 32 42.625 L 32 45 C 32 45.07206 31.98782 45.198446 31.71875 45.4375 C 31.449685 45.676554 30.958591 45.948001 30.3125 46.1875 C 29.020317 46.666499 27.101515 47 25 47 C 22.898485 47 20.979683 46.666499 19.6875 46.1875 C 19.041409 45.948001 18.550315 45.676554 18.28125 45.4375 C 18.012185 45.198446 18 45.072059 18 45 L 18 42.625 z M 34 42.625 C 34.307424 42.783308 34.643628 42.930396 35 43.0625 C 36.607817 43.658501 38.701515 44 41 44 C 43.298485 44 45.392183 43.658501 47 43.0625 C 47.356372 42.930396 47.692576 42.783308 48 42.625 L 48 45 C 48 45.07206 47.98781 45.198446 47.71875 45.4375 C 47.449685 45.676554 46.958591 45.948001 46.3125 46.1875 C 45.020317 46.666499 43.101515 47 41 47 C 38.898485 47 36.979683 46.666499 35.6875 46.1875 C 35.041409 45.948001 34.550315 45.676554 34.28125 45.4375 C 34.012185 45.198446 34 45.072059 34 45 L 34 42.625 z"></path>
</svg>