<?xml version="1.0" encoding="utf-8"?>
<!-- Generator: Adobe Illustrator 18.1.1, SVG Export Plug-In . SVG Version: 6.00 Build 0)  -->
<svg version="1.1" id="Layer_1" xmlns="http://www.w3.org/2000/svg" xmlns:xlink="http://www.w3.org/1999/xlink" x="0px" y="0px"
	 width="150px" height="150px" viewBox="0 0 150 150" enable-background="new 0 0 150 150" xml:space="preserve">
<path fill="white" d="M140,97.9c-1.3,1.5-1.9,3.6-3,5.3c-3,4.9-3.9,0.9-4.4-3.1c-0.3-3.3-0.8-10.5-6-8.4c-0.2,0.1-0.3,0.2-0.5,0.3
	l-4.2-0.2c-0.4,0-0.9-0.2-1.2-0.5l-2.4-2.4c-0.2-0.2-0.8-0.6-1.2-0.6l-1-0.2c-0.4-0.1-0.5,0.2-0.3,0.5L119,94c0.2,0.3,0.6,0.5,1,0.3
	l1.8-0.8c0.3-0.2,0.9-0.2,1.2,0.1l1.2,0.7c-1,1.9-1.6,4.2-2.5,5.8l-9.3,6.5c-0.3,0.2-0.7,0.1-0.9-0.2c0,0-2.8-5.3-3.9-7.3
	c-1.2-2.1-5.5-7.1-5.5-7.1c-0.2-0.3-0.5-0.2-0.5,0.2c0,0,0,1.5,0.7,4.2s8.3,12.2,8.3,12.2c0.2,0.3,0.7,0.5,1.1,0.4
	c0,0,2.5-0.6,5.4-1.4c0,0.7,0.1,1.5-0.2,2.2c-1,3.3-3.8,5.4-6.2,7.8c-2.7,2.7-4.9,5.3-6,8.8c-0.9,2.8-0.6,5.8-2.4,8.4
	c-1.5,2.2-6.1,5.4-10.9,7.5c-3.2,0.7-6.4,1.3-9.7,1.7c-0.1,0-0.2-0.1-0.2-0.1c-2.8-1.3-5.3-7.1-4.7-10.2c0.3-1.7,2.5-3.1,2.4-4.9
	c-0.1-1.2-2.4-3.6-3-4.8c-2.1-3.6-4-6.9-8.7-6.9c-4.4,0-9.5,0.6-13.4-1.9c-3.7-2.4-6.6-7.5-7.1-11.9c-0.7-6,2.5-10.1,5.7-14.5
	c1.4-1.9,2.6-4.4,4.7-5.7c3.4-2.1,8.5-1.9,12.3-1.5c1.6,0.2,2.9,0.5,4.1,1l0.2,1c0.1,0.4,0.5,0.8,0.8,0.9L84,88
	c0.3,0.2,0.6-0.1,0.7-0.4l0.1-0.8c1.7,0,3.3-0.2,4.9-0.2c2.8,0,12.2,3.1,10.7-1.9c-1-3.4-4.5-2.8-6.4-5.2c-0.5-0.6-0.9-1.1-1.2-1.5
	c0-0.3,0-0.6,0.2-0.8l1.2-1.7c0.2-0.3,0.7-0.7,1.1-0.9l3.4-1.7c0.3-0.2,0.9-0.2,1.2,0l2.5,1.3c0.3,0.2,0.9,0.2,1.3,0.1l4-1.3
	c0.4-0.2,0.4-0.4,0.1-0.6l-4.2-2.7c-0.3-0.2-0.7-0.6-1-1l-0.7-1.3c-0.2-0.3-0.6-0.4-0.9-0.2l-1.8,1.3c-0.3,0.2-0.7,0.2-1-0.2
	c0,0-1.4-1.9-1.9-2c-0.4-0.2-2.4,6.5-2.4,6.5c-0.1,0.4-0.5,0.8-0.9,0.9l-1,0.7c-0.3,0.2-0.9,0.4-1.3,0.6l-0.6,0.3
	c-0.3,0.2-0.6,0.6-0.5,1.1l0.2,1.1c-0.2,0.1-0.4,0.2-0.6,0.3c-0.6,0.3-1.3,0.9-2.2,1.5c-0.9-1.4-1.9-3-1.9-3
	c-0.2-0.3-0.5-0.9-0.6-1.2L84,73.9c-0.2-0.3-0.5-0.9-0.7-1.1l-3.8-3.3c-0.2-0.2-0.8-0.5-1.2-0.4c0,0-1.8,0.2-2.2,0.3l4.1,4.4
	c0.2,0.2,0.6,0.7,0.9,1.1c0,0,2,2.8,1.1,3.5c-0.9,0.6-2.8,2.5-2.8,2.5c-0.2,0.2-0.6,0.2-0.8-0.2l-0.2-0.3c-0.2-0.3-0.1-0.9,0.2-1.1
	l0.5-0.5c0.2-0.2,0.3-0.7,0-1.1c0,0-1.5-1.8-2.3-2.4c-0.3-0.2-1.2-1.5-2.3-2.6c-0.4-0.9-0.9-1.7-1.4-2c-4.6-2.8-4.2,4.9-7,6.7
	c-2.9,1.9-5.9,4.1-9.3,3c-3.5-1.2-2.6-4.9-1.6-7.9c0.6-2,2.1-1.8,4-1.8c1.8-0.1,0.3-1.3,0.1-3.3c-0.2-1.5-0.8-2.4-0.5-3.6
	c0.1-0.2,0.2-0.3,0.3-0.5c0.1,0,0.1-0.1,0.2-0.1l1.5-0.4c0.4-0.1,1-0.2,1.4-0.2l0.6,0.1c0.4,0,0.8-0.2,1-0.6l0.3-0.6l0.1-0.1
	c1.7-1.1,3.1-2.6,4.7-3.7c1.6-1.1,2.6-1.9,3-3.9c0.2-0.8,0-1.8-0.2-2.6l0.7-0.4c0.3-0.2,0.7-0.1,0.8,0.3l0.9,3
	c0.1,0.4,0.5,0.7,0.9,0.8l1.1,0.2c0.4,0.1,1,0,1.3-0.2l1-0.5c0.3-0.2,1-0.3,1.3-0.3h2.7c0.4,0,0.7-0.3,0.8-0.7l0.2-1
	c0.1-0.4,0.2-1,0.5-1.3l1.1-1.6c0.2-0.3,0.7-0.7,1.1-0.9l3.2-1.8c0.3-0.2,0.4-0.6,0.2-0.9l-0.3-0.4c-0.2-0.3-0.7-0.5-1.1-0.4
	L84.5,46c-0.4,0.1-0.8-0.2-0.9-0.5l-0.9-2.8c-0.1-0.4-0.1-1,0.1-1.3l1.8-3.5c0.2-0.3,0-0.7-0.3-0.9l-0.9-0.3c-0.3-0.2-0.8,0-1.1,0.3
	l-2.8,4.8c-0.2,0.3-0.2,0.9-0.1,1.2l1,2c0.2,0.3,0.2,0.9-0.1,1.2l-0.7,1.1c-0.2,0.3-0.5,0.9-0.5,1.3l-0.3,1.9
	c-0.1,0.4-0.4,0.9-0.6,1.1l-1.5,1.3c-0.3,0.2-0.6,0.2-0.8-0.2l-2.1-5.3c-0.2-0.3-0.5-0.5-0.8-0.2l-2.3,1.6c-1.1-2.1-2.2-4.1-1.1-5.9
	c0.6-1.1,1.9-1.5,2.6-2.4c1-1.1,1.8-2.4,2.4-3.7c1.5-3.2,3.6-7.7,7.6-8.4c3.7-0.6,7.2,1.4,10.4,3.1c1.7,0.8,3.7,1.6,5.9,2
	c-0.6,1-1.2,2.2-1.5,2.2c-0.4,0-3-1.1-3-1.1c-0.3-0.2-0.8-0.1-1.1,0.1c-0.2,0.2-0.2,0.6,0.1,0.8l0.6,0.6c0.3,0.2,0.7,0.7,1,1
	l1.5,1.7c0.2,0.3,0.7,0.3,1,0.1l1.2-1.1c0.3-0.2,0.8-0.6,1.1-0.9l4.3-3.1c0.1-0.1,0.1-0.1,0.2-0.2c0.2-0.1,0.4-0.1,0.6-0.1
	c5.8-1.7-1-9.2,7.1-10.9l-0.2,4.9c0,0.4,0.2,0.6,0.6,0.6l1.5-0.1c0.4,0,0.6-0.3,0.5-0.7c0,0-1.1-2.9-0.2-2.9s4.9-0.4,4.9-0.4
	c0.4,0,0.8-0.3,1-0.7l0.2-0.3c1.2,1.1,2.4,2.2,3.6,3.3c12.5,12.5,20.3,29.8,20.3,48.8c0,7.9-1.3,15.4-3.7,22.5
	C140.3,97.7,140.1,97.8,140,97.9 M20.9,32c0.2,3.8,0.6,7.7-1.4,11.1c-0.1,0.1-0.1,0.2-0.2,0.2c-0.1-0.1-0.2-0.1-0.4,0l-3.5,1.2
	c-0.2,0.1-0.3,0-0.5,0c-0.4-0.3-0.7-0.8-1.1-1.4c-0.1-0.2-0.1-0.2-0.1-0.2C15.8,39.1,18.2,35.4,20.9,32 M56.2,8.5
	c1.1,0.7,1.7,2,1.1,3.7c-0.7,2.4-3.8,4.8-4.9,6.9C50.8,22,51,25.2,49.3,28c-2,3.3-4.9,4.4-8.2,6c-4.2,2-7,3.8-9.9,7.6
	c-1.4,1.9-3.9,7.5-6.6,4.3c-1.5-1.8-0.2-7.3,0.2-9.3c0.9-4.3,4.1-8.5,2.8-11.9C35.6,17.3,45.3,11.6,56.2,8.5 M71.8,12.2l0.8-0.3
	c3.8-0.2,5.3-1.1,9-0.6c0.2,2.4-2.6,2.5-4,3.8c-1.9,1.9-1.2,3.6-4.9,2.6C72.5,15.9,70.8,13.9,71.8,12.2 M56.1,61.8
	c0.4,0,1-0.2,1.2-0.4l1.3-1.1c0.3-0.2,0.4-0.6,0.2-0.9c-0.2-0.2-0.2-0.7-0.1-1.1c0.2-0.3,0.5-0.8,0.8-1.1l0.4-0.3
	c0.3-0.2,0.4-0.7,0.2-1.1l-0.3-0.6c-0.2-0.3-0.6-0.6-1.1-0.6c-0.4,0-0.8-0.3-1-0.7c0,0-0.6-1.4-1.1-2.6c0.2-0.7,0.2-1.6,0.6-2.4
	c0.3-0.6,2.3-0.6,3-0.2l-0.5-0.2c1.8,0.6,1.9,1.1,2.2,2.8c0.3,2.1,1.1,2.8,2.2,4.7c0.8,1.3,0.2,2.9-1,4.2L62,60.5
	c-0.4,0.1-0.9,0.4-1.2,0.6l-0.6,0.4c-0.3,0.2-0.9,0.4-1.2,0.4l-2,0c-0.2,0-0.5,0.1-0.6,0.2C56.3,62,56.2,61.9,56.1,61.8L56.1,61.8z
	 M51.2,41.4c-2.2,1.7-6.6,1.1-7.2-0.3l-0.1-0.8c0-1.3,0.6-2.2,1.3-3.5c2.2-0.7,9.7-2,7.7,2.7C52.7,39.8,52.1,40.6,51.2,41.4
	 M55.1,53.5l2,1.9c0.3,0.2,0.4,0.8,0.3,1.1L57,58.1c-0.1,0.4-0.4,0.9-0.6,1.1l-1.2,1.1l0,0c-1.4-0.9-2.7-0.9-2.6-3.5
	C52.6,55.3,53.9,54.4,55.1,53.5 M5.9,75c0-10,2.2-19.6,6-28.1c0.2,0,0.3-0.1,0.5,0c0.3,0,0.6,0.2,0.9,0.5l0,0l0.2,2.4
	c0,0.4,0.3,0.6,0.7,0.5l0.6-0.2c1.1,3.2,1.6,8.2,1.4,9.9c-0.3,3.1-1.5,3.2-3.6,5.1c-1.8,1.5-2.9,3.2-4.2,5.3
	c-0.6,0.9-1.5,2.9-2.5,5.2C5.9,75.2,5.9,75.2,5.9,75 M26.2,123.9c-6-6-10.9-13.1-14.4-20.9c1.3,0.7,1.8,1.4,2.9,2.8
	c3.6,4.5,5.6,8.6,10.8,11.4c3.1,1.7,8.3,2.6,8,6.8c0,0.7-0.6,3.2-1.5,5.2C29.9,127.5,28,125.8,26.2,123.9 M75,0C33.6,0,0,33.6,0,75
	s33.6,75,75,75s75-33.6,75-75S116.4,0,75,0"/>
</svg>
