<svg xmlns="http://www.w3.org/2000/svg" viewBox="0 0 50 50">
    <path style="text-indent:0;text-align:start;line-height:normal;text-transform:none;block-progression:tb;-inkscape-font-specification:Sans" d="M 9.90625 5.96875 A 1.0001 1.0001 0 0 0 9.8125 6 L 9.78125 6 L 3 6 A 1.0001 1.0001 0 0 0 2 7 L 2 31 A 1.0001 1.0001 0 0 0 2 31.09375 A 1.0001 1.0001 0 0 0 3 32 L 9.8125 32 L 10.21875 32 L 39.8125 32 L 40.21875 32 L 47 32 A 1.0001 1.0001 0 0 0 48 31 L 48 7 A 1.0001 1.0001 0 0 0 47 6 L 40.1875 6 A 1.0001 1.0001 0 0 0 39.90625 5.96875 A 1.0001 1.0001 0 0 0 39.78125 6 L 10.3125 6 L 10.21875 6 A 1.0001 1.0001 0 0 0 9.90625 5.96875 z M 4 8 L 9 8 L 9 30 L 4 30 L 4 8 z M 11 8 L 39 8 L 39 30 L 11 30 L 11 8 z M 41 8 L 46 8 L 46 30 L 41 30 L 41 8 z M 25 11 C 22.049701 11 19.679462 13.185623 19.1875 16 L 19 16 C 16.802666 16 15 17.802666 15 20 C 15 22.197334 16.802666 24 19 24 A 1.0001 1.0001 0 1 0 19 22 C 17.883334 22 17 21.116666 17 20 C 17 18.883334 17.883334 18 19 18 L 20 18 A 1.0001 1.0001 0 0 0 21 17 C 21 14.779625 22.779625 13 25 13 C 27.220375 13 29 14.779625 29 17 A 1.0001 1.0001 0 0 0 30 18 L 31 18 C 32.116666 18 33 18.883334 33 20 C 33 21.116666 32.116666 22 31 22 A 1.0001 1.0001 0 1 0 31 24 C 33.197334 24 35 22.197334 35 20 C 35 17.802666 33.197334 16 31 16 L 30.8125 16 C 30.320538 13.185623 27.950299 11 25 11 z M 37.90625 32.96875 A 1.0001 1.0001 0 0 0 37.78125 33 A 1.0001 1.0001 0 0 0 37 34 L 37 36.59375 C 36.266243 36.406701 35.518762 36.233928 34.625 36.03125 C 27.933307 34.513773 17.610269 33 3 33 A 1.0001 1.0001 0 0 0 2.90625 33 A 1.001098 1.001098 0 0 0 2.8125 33 A 1.0043849 1.0043849 0 0 0 3 35 C 17.472731 35 27.649943 36.486227 34.1875 37.96875 C 40.725057 39.451273 43.5625 40.90625 43.5625 40.90625 A 1.0001 1.0001 0 0 0 45 40 L 45 34 A 1.0001 1.0001 0 1 0 43 34 L 43 38.5 C 42.171221 38.157625 40.888916 37.668904 39 37.125 L 39 34 A 1.0001 1.0001 0 0 0 37.90625 32.96875 z M 2.71875 36 A 1.0043849 1.0043849 0 0 0 3 38 C 16.309432 38 25.66378 40.485494 31.6875 42.9375 C 37.71122 45.389506 40.34375 47.75 40.34375 47.75 A 1.0001 1.0001 0 0 0 42 47 L 42 42 A 1.0001 1.0001 0 1 0 40 42 L 40 45.0625 C 39.266947 44.544327 38.304555 43.89922 37 43.1875 L 37 40.6875 A 1.0001 1.0001 0 0 0 35.875 39.6875 A 1.0001 1.0001 0 0 0 35 40.6875 L 35 42.1875 C 34.235384 41.826015 33.394202 41.451934 32.4375 41.0625 C 26.17797 38.514506 16.557568 36 3 36 A 1.0001 1.0001 0 0 0 2.90625 36 A 1.001098 1.001098 0 0 0 2.8125 36 A 1.0043849 1.0043849 0 0 0 2.71875 36 z"></path>
</svg>