<?xml version="1.0" encoding="UTF-8" standalone="no"?>
<svg
   xmlns:dc="http://purl.org/dc/elements/1.1/"
   xmlns:cc="http://creativecommons.org/ns#"
   xmlns:rdf="http://www.w3.org/1999/02/22-rdf-syntax-ns#"
   xmlns:svg="http://www.w3.org/2000/svg"
   xmlns="http://www.w3.org/2000/svg"
   xmlns:sodipodi="http://sodipodi.sourceforge.net/DTD/sodipodi-0.dtd"
   xmlns:inkscape="http://www.inkscape.org/namespaces/inkscape"
   viewBox="0 0 46.02298 46.035164"
   enable-background="new 0 0 50 50"
   id="svg2"
   version="1.1"
   inkscape:version="0.91 r13725"
   sodipodi:docname="pricetag.svg"
   width="46.02298"
   height="46.035164">
  <metadata
     id="metadata10">
    <rdf:RDF>
      <cc:Work
         rdf:about="">
        <dc:format>image/svg+xml</dc:format>
        <dc:type
           rdf:resource="http://purl.org/dc/dcmitype/StillImage" />
        <dc:title></dc:title>
      </cc:Work>
    </rdf:RDF>
  </metadata>
  <defs
     id="defs8" />
  <sodipodi:namedview
     pagecolor="#ffffff"
     bordercolor="#666666"
     borderopacity="1"
     objecttolerance="10"
     gridtolerance="10"
     guidetolerance="10"
     inkscape:pageopacity="0"
     inkscape:pageshadow="2"
     inkscape:window-width="640"
     inkscape:window-height="480"
     id="namedview6"
     showgrid="false"
     fit-margin-top="0"
     fit-margin-left="0"
     fit-margin-right="0"
     fit-margin-bottom="0"
     inkscape:zoom="4.72"
     inkscape:cx="22.923998"
     inkscape:cy="23.033285"
     inkscape:window-x="20"
     inkscape:window-y="43"
     inkscape:window-maximized="0"
     inkscape:current-layer="svg2" />
  <path
     style="color:#ffffff;line-height:normal;font-family:'Bitstream Vera Sans';-inkscape-font-specification:'Bitstream Vera Sans';text-indent:0;text-align:start;text-transform:none;block-progression:tb;overflow:visible;fill:#ffffff;enable-background:accumulate"
     d="m 26.548998,0.00187849 c -0.334567,0.00423 -0.681698,0.016907 -1.03125,0.0625 -0.686283,0.089515 -1.437011,0.3172901 -2,0.93750001 -0.01052,0.011587 -0.02088,0.019395 -0.03125,0.03125 L 0.83024823,23.689378 c -1.104061,1.104061 -1.0888386,2.889542 -0.0625,4.0625 l 0.03125,0.03125 0.03125,0.03125 17.37499977,17.40625 c 1.104061,1.104061 2.889542,1.057589 4.0625,0.03125 l 0.03125,-0.03125 0.03125,0 22.6875,-22.71875 c 1.137733,-1.137733 1,-2.7 1,-4 l 0,-0.15625 c 7e-5,7.31e-4 0.0068,0.0072 0,-0.03125 -10e-4,-0.0058 0.0015,-0.02354 0,-0.03125 -0.0019,-0.03857 0.002,-0.130532 0,-0.1875 -0.0029,-0.08609 -0.02843,-0.159913 -0.03125,-0.28125 -0.0094,-0.403267 -0.02424,-0.992065 -0.03125,-1.6875 -0.01402,-1.390869 -0.025,-3.238626 -0.03125,-5.09375 -0.01249,-3.7102473 0,-7.4312495 0,-7.5312495 0,-1.9238095 -1.57619,-3.50000001 -3.5,-3.50000001 l -14.90625,0 c -0.312179,0 -0.634183,-0.0042266 -0.96875,0 z m 0,2.00000001 c 0.296683,-4.609e-4 0.63093,0 0.96875,0 l 14.90625,0 c 0.87619,0 1.5,0.6238095 1.5,1.5 0,0.1 -0.01251,3.8164978 0,7.5312495 0.0063,1.857376 0.01714,3.725244 0.03125,5.125 0.0071,0.699878 0.02148,1.266939 0.03125,1.6875 0.0049,0.21028 0.02496,0.401677 0.03125,0.53125 0.0025,0.05183 -0.0038,0.07859 0,0.125 9.49e-4,0.0116 -0.0011,0.01924 0,0.03125 -0.0034,1.278383 -0.147067,2.303317 -0.40625,2.5625 l -22.65625,22.65625 c -0.0112,0.0098 -0.0198,0.02201 -0.03125,0.03125 -0.424924,0.34322 -0.993073,0.288177 -1.28125,0 l -17.3749998,-17.34375 -0.03125,-0.03125 c -0.3433241,-0.424933 -0.2882036,-1.024296 0,-1.3125 L 24.923998,2.4081285 l 0.03125,-0.03125 0.03125,-0.03125 c 0.134383,-0.1535811 0.330354,-0.2536874 0.78125,-0.3125 0.225448,-0.029406 0.484567,-0.030789 0.78125,-0.03125 z m 10.375,3 c -2.197294,0 -4,1.8027056 -4,4 0,2.1972935 1.802706,3.9999995 4,3.9999995 2.197294,0 4,-1.802706 4,-3.9999995 0,-2.1972944 -1.802706,-4 -4,-4 z m 0,2 c 1.116414,0 2,0.883586 2,2 0,1.1164135 -0.883586,1.9999995 -2,1.9999995 -1.116414,0 -2,-0.883586 -2,-1.9999995 0,-1.116414 0.883586,-2 2,-2 z m -6.6875,7.9999995 -1.625,1.59375 c -1.3,-1 -4.2875,-2.0875 -6.6875,0.3125 -4.5,4.5 4.4,8.7875 1,12.1875 -1.2,1.2 -2.70625,1.7 -4.90625,-0.5 -2.2,-2.2 -1.0875,-4.50625 -0.1875,-5.40625 l -1.40625,-1.375 c -2.8,3.3 -1.40625,6.1 -0.40625,7.5 l -1.40625,1.375 1.40625,1.40625 1.3125,-1.28125 c 1.3,0.9 4.58125,2.58125 7.28125,-0.21875 2.3,-2.3 1.11875,-4.8875 -0.28125,-7.1875 -1.2,-1.9 -2.11875,-3.6 -0.71875,-5 0.6,-0.6 2.30625,-1.81875 4.40625,0.28125 1.5,1.5 1.30625,3.10625 0.40625,4.40625 l 1.40625,1.40625 c 1.1,-2 1.8875,-4.1 0.1875,-6.5 l 1.59375,-1.59375 -1.375,-1.40625 z"
     overflow="visible"
     id="path4"
     inkscape:connector-curvature="0" />
</svg>
