<svg xmlns="http://www.w3.org/2000/svg" viewBox="0 0 50 50" enable-background="new 0 0 50 50">
    <path style="text-indent:0;text-align:start;line-height:normal;text-transform:none;block-progression:tb;-inkscape-font-specification:Bitstream Vera Sans" d="M 4 2 C 1.7901961 2 0 3.7901961 0 6 L 0 42 C 0 44.209804 1.7901961 46 4 46 L 5 46 L 5 48 A 1.0001 1.0001 0 0 0 6 49 L 11 49 A 1.0001 1.0001 0 0 0 12 48 L 12 46 L 39 46 L 39 48 A 1.0001 1.0001 0 0 0 40 49 L 45 49 A 1.0001 1.0001 0 0 0 46 48 L 46 46 C 48.209804 46 50 44.209804 50 42 L 50 6 C 50 3.7901961 48.209804 2 46 2 L 4 2 z M 4 4 L 46 4 C 47.190196 4 48 4.8098039 48 6 L 48 42 C 48 43.190196 47.190196 44 46 44 L 45.1875 44 L 44.78125 44 L 40.3125 44 L 40.21875 44 A 1.0001 1.0001 0 0 0 39.90625 43.96875 A 1.0001 1.0001 0 0 0 39.8125 44 L 39.78125 44 L 11.1875 44 L 10.78125 44 L 6.3125 44 L 6.21875 44 A 1.0001 1.0001 0 0 0 5.90625 43.96875 A 1.0001 1.0001 0 0 0 5.8125 44 L 5.78125 44 L 4 44 C 2.8098039 44 2 43.190196 2 42 L 2 6 C 2 4.8098039 2.8098039 4 4 4 z M 5.8125 7 A 1.0001 1.0001 0 0 0 5 8 L 5 21.6875 A 1.0001 1.0001 0 0 0 5 22.28125 L 5 25.8125 A 1.016466 1.016466 0 0 0 5 25.90625 A 1.016466 1.016466 0 0 0 5 26.125 A 1.016466 1.016466 0 0 0 5 26.21875 L 5 40 A 1.0001 1.0001 0 0 0 6 41 L 44 41 A 1.0001 1.0001 0 0 0 45 40 L 45 8 A 1.0001 1.0001 0 0 0 44 7 L 6 7 A 1.0001 1.0001 0 0 0 5.90625 7 A 1.0001 1.0001 0 0 0 5.8125 7 z M 7 9 L 43 9 L 43 39 L 7 39 L 7 26.4375 L 8.71875 24.71875 A 1.0001 1.0001 0 0 0 8.71875 23.28125 L 7 21.5625 L 7 9 z M 24.90625 11.96875 A 1.0001 1.0001 0 0 0 24.78125 12 A 1.0001 1.0001 0 0 0 24.6875 12.03125 C 21.647695 12.110741 18.887021 13.307626 16.8125 15.25 A 1.0001 1.0001 0 0 0 16.21875 15.875 C 14.34314 17.900642 13.1541 20.558578 13.03125 23.5 A 1.0043849 1.0043849 0 0 0 13.03125 24.5 C 13.152786 27.40998 14.31529 30.044891 16.15625 32.0625 A 1.0001 1.0001 0 0 0 16.9375 32.84375 C 19.020807 34.744656 21.759157 35.944963 24.78125 36 A 1.0001 1.0001 0 0 0 24.8125 36 C 24.875714 36.000987 24.936556 36 25 36 C 25.074018 36 25.145046 36.001342 25.21875 36 A 1.0001 1.0001 0 0 0 25.3125 35.96875 C 28.304959 35.890497 31.030545 34.733503 33.09375 32.84375 A 1.0001 1.0001 0 0 0 33.84375 32.03125 C 35.742184 29.942705 36.95276 27.213783 37 24.1875 A 1.0001 1.0001 0 0 0 37 24 C 37 23.957704 37.000439 23.917195 37 23.875 A 1.0001 1.0001 0 0 0 36.96875 23.6875 C 36.889259 20.647695 35.692374 17.887021 33.75 15.8125 A 1.0001 1.0001 0 0 0 33.15625 15.25 C 31.061703 13.296322 28.288279 12.0559 25.21875 12 A 1.0001 1.0001 0 0 0 24.90625 11.96875 z M 23.96875 14.0625 C 23.978917 14.061472 23.989824 14.063498 24 14.0625 L 24 16 A 1.0001 1.0001 0 1 0 26 16 L 26 14.0625 C 28.017121 14.260313 29.861211 15.037972 31.34375 16.25 L 30 17.59375 A 1.0001 1.0001 0 1 0 31.40625 19 L 32.75 17.65625 C 33.962028 19.138789 34.739687 20.982879 34.9375 23 L 33 23 A 1.0001 1.0001 0 0 0 32.90625 23 A 1.001098 1.001098 0 0 0 32.8125 23 A 1.0043849 1.0043849 0 0 0 33 25 L 34.9375 25 C 34.739687 27.017121 33.962028 28.861211 32.75 30.34375 L 31.40625 29 A 1.0001 1.0001 0 0 0 30.59375 28.6875 A 1.0001 1.0001 0 0 0 30.5 28.6875 A 1.0001 1.0001 0 0 0 30 30.40625 L 31.34375 31.75 C 29.861211 32.962028 28.017121 33.739687 26 33.9375 L 26 32 A 1.0001 1.0001 0 0 0 24.90625 30.96875 A 1.0001 1.0001 0 0 0 24.78125 31 A 1.0001 1.0001 0 0 0 24 32 L 24 33.9375 C 21.982879 33.739687 20.138789 32.962028 18.65625 31.75 L 20 30.40625 A 1.0001 1.0001 0 0 0 19.1875 28.6875 A 1.0001 1.0001 0 0 0 18.59375 29 L 17.25 30.34375 C 16.037972 28.861211 15.260313 27.017121 15.0625 25 L 17 25 A 1.0001 1.0001 0 1 0 17 23 L 15.0625 23 C 15.260313 20.982879 16.037972 19.138789 17.25 17.65625 L 18.59375 19 A 1.0001 1.0001 0 1 0 20 17.59375 L 18.65625 16.25 C 20.13131 15.044086 21.9636 14.265294 23.96875 14.0625 z M 25 18 C 21.698136 18 19 20.698136 19 24 C 19 27.301864 21.698136 30 25 30 C 28.301864 30 31 27.301864 31 24 C 31 20.698136 28.301864 18 25 18 z M 25 20 C 27.220984 20 29 21.779016 29 24 C 29 26.220984 27.220984 28 25 28 C 22.779016 28 21 26.220984 21 24 C 21 21.779016 22.779016 20 25 20 z M 7 46 L 10 46 L 10 47 L 7 47 L 7 46 z M 41 46 L 44 46 L 44 47 L 41 47 L 41 46 z"></path>
</svg>